<svg width="24" height="24" viewBox="0 0 24 24" fill="none" xmlns="http://www.w3.org/2000/svg">
<path d="M11 9.96957V9H17V10" stroke="currentColor" stroke-linecap="round" stroke-linejoin="round"/>
<path d="M12 14H16L14.1177 15.5048V19H12.753" stroke="currentColor" stroke-linecap="round" stroke-linejoin="round"/>
<path d="M12 17H16" stroke="currentColor" stroke-linecap="round" stroke-linejoin="round"/>
<path d="M19.357 4.36835H8.64297C8.28787 4.36835 8 4.65622 8 5.01132V20.9887C8 21.3438 8.28787 21.6317 8.64297 21.6317H19.357C19.7121 21.6317 20 21.3438 20 20.9887V5.01132C20 4.65622 19.7121 4.36835 19.357 4.36835Z" stroke="currentColor" stroke-linecap="round" stroke-linejoin="round"/>
<path d="M11.3743 2C11.2837 2.00026 11.194 2.01961 11.1106 2.05691L2.41153 5.94203C2.32978 5.97847 2.25567 6.03152 2.19344 6.09812C2.13122 6.16473 2.08211 6.24358 2.04892 6.33017C2.01573 6.41676 1.99912 6.50938 2.00004 6.60272C2.00095 6.69607 2.01937 6.78831 2.05425 6.87416L7.59289 20.6019C7.63148 20.6968 7.68937 20.7816 7.76249 20.8503C7.8356 20.9191 7.92218 20.9702 8.01611 21C7.91355 20.8729 7.85704 20.7118 7.85657 20.5451V5.63135C7.85634 5.53807 7.87365 5.44565 7.90749 5.35942C7.94133 5.27318 7.99104 5.19482 8.05376 5.12883C8.11649 5.06285 8.191 5.01053 8.27301 4.9749C8.35502 4.93926 8.44292 4.921 8.53166 4.92117H13L11.9967 2.43417C11.9452 2.30541 11.8586 2.19552 11.7479 2.11828C11.6372 2.04104 11.5072 1.99989 11.3743 2Z" stroke="currentColor" stroke-linecap="round" stroke-linejoin="round"/>
<path d="M14 7L14 12" stroke="currentColor" stroke-linecap="round" stroke-linejoin="round"/>
</svg>
